<?xml version="1.0" encoding="UTF-8"?>
<svg
    width="1080"
    height="1920"
    viewBox="0 0 1080 1920"
    fill="none"
    xmlns="http://www.w3.org/2000/svg">
    <defs>
        <!-- Background: predominantly white with very soft pink bloom -->
        <linearGradient id="bg" x1="0" y1="0" x2="1" y2="1">
            <stop offset="0%" stop-color="#ffffff"/>
            <stop offset="65%" stop-color="#ffffff"/>
            <stop offset="88%" stop-color="#ff69b4" stop-opacity="0.45"/>
            <stop offset="100%" stop-color="#1e90ff" stop-opacity="0.12"/>
        </linearGradient>

        <!-- Pink materials -->
        <linearGradient id="pinkRibbon" x1="0" y1="0" x2="1" y2="1">
            <stop offset="0%" stop-color="#ff69b4" stop-opacity="0.78"/>
            <stop offset="100%" stop-color="#ff9fd2" stop-opacity="0.38"/>
        </linearGradient>
        <radialGradient id="pinkBlob" cx="50%" cy="50%" r="65%">
            <stop offset="0%" stop-color="#ff69b4" stop-opacity="0.50"/>
            <stop offset="100%" stop-color="#ff69b4" stop-opacity="0.0"/>
        </radialGradient>
        <linearGradient id="pinkVeil" x1="0" y1="1" x2="1" y2="0">
            <stop offset="0%" stop-color="#ff69b4" stop-opacity="0.35"/>
            <stop offset="100%" stop-color="#ff9fd2" stop-opacity="0.15"/>
        </linearGradient>

        <!-- Minimal blue accent -->
        <linearGradient id="blueWhisper" x1="0" y1="1" x2="1" y2="0">
            <stop offset="0%" stop-color="#1e90ff" stop-opacity="0.16"/>
            <stop offset="100%" stop-color="#1e90ff" stop-opacity="0.05"/>
        </linearGradient>

        <!-- White glows -->
        <radialGradient id="glowTopLeft" cx="24%" cy="14%" r="55%">
            <stop offset="0%" stop-color="#ffffff" stop-opacity="0.95"/>
            <stop offset="80%" stop-color="#ffffff" stop-opacity="0.0"/>
        </radialGradient>
        <radialGradient id="glowMidRight" cx="78%" cy="36%" r="45%">
            <stop offset="0%" stop-color="#ffffff" stop-opacity="0.8"/>
            <stop offset="80%" stop-color="#ffffff" stop-opacity="0.0"/>
        </radialGradient>

        <!-- Filters -->
        <filter id="blur24" x="-20%" y="-20%" width="140%" height="140%">
            <feGaussianBlur stdDeviation="24"/>
        </filter>
        <filter id="blur14" x="-20%" y="-20%" width="140%" height="140%">
            <feGaussianBlur stdDeviation="14"/>
        </filter>
        <filter id="grain" x="-20%" y="-20%" width="140%" height="140%">
            <feTurbulence type="fractalNoise" baseFrequency="0.68" numOctaves="2" stitchTiles="stitch"/>
            <feColorMatrix values="0 0 0 0 1
                                   0 0 0 0 1
                                   0 0 0 0 1
                                   0 0 0 0.012 0"/>
            <feBlend mode="soft-light"/>
            <feGaussianBlur stdDeviation="0.25"/>
        </filter>
    </defs>

    <!-- Canvas -->
    <rect x="0" y="0" width="1080" height="1920" rx="64" ry="64" fill="url(#bg)"/>

    <!-- Big soft white glows to keep things airy -->
    <ellipse cx="260" cy="240" rx="520" ry="340" fill="url(#glowTopLeft)" filter="url(#blur24)"/>
    <ellipse cx="860" cy="520" rx="420" ry="300" fill="url(#glowMidRight)" filter="url(#blur24)"/>

    <!-- Wavy ribbon sweeping across (new composition) -->
    <path d="M -60 460
             C 180 220, 560 320, 940 500
             C 1100 580, 1140 660, 1140 720
             L 1140 780
             C 1060 720, 900 700, 720 710
             C 520 720, 300 780, 60 820
             C -20 832, -60 820, -60 820 Z"
          fill="url(#pinkRibbon)" opacity="0.62"/>

    <!-- Overlapping organic blobs (petal-like) -->
    <path d="M 120 700
             C 260 560, 460 560, 620 660
             C 740 736, 720 860, 560 900
             C 380 944, 220 860, 160 800 Z"
          fill="url(#pinkBlob)" opacity="0.70"/>

    <path d="M 640 820
             C 760 720, 940 760, 1040 860
             C 1110 926, 1080 1020, 960 1060
             C 820 1108, 660 1000, 620 920 Z"
          fill="url(#pinkBlob)" opacity="0.55"/>

    <!-- Fine ribbon accent (adds motion without heaviness) -->
    <path d="M 80 980
             C 300 900, 520 940, 760 900
             C 920 874, 1040 900, 1100 940
             C 980 980, 860 1020, 680 1050
             C 480 1084, 300 1060, 120 1030 Z"
          fill="url(#pinkVeil)" opacity="0.42" filter="url(#blur14)"/>

    <!-- Subtle white wave overlay to preserve airy feel -->
    <path d="M 0 1180
             C 200 1080, 460 1160, 660 1220
             C 860 1280, 980 1400, 1080 1440
             L 1080 1920
             L 0 1920 Z"
          fill="#ffffff" opacity="0.35"/>

    <!-- Whisper of blue at bottom-left only -->
    <path d="M 0 1640
             C 160 1580, 260 1660, 380 1740
             C 460 1792, 520 1860, 540 1920
             L 0 1920 Z"
          fill="url(#blueWhisper)" opacity="0.55"/>

    <!-- Sparse bokeh -->
    <g opacity="0.24" filter="url(#blur14)">
        <circle cx="300" cy="340" r="12" fill="#ffffff"/>
        <circle cx="440" cy="280" r="10" fill="#ffffff"/>
        <circle cx="880" cy="420" r="12" fill="#ffffff"/>
        <circle cx="760" cy="300" r="9" fill="#ffffff"/>
        <circle cx="980" cy="280" r="8" fill="#ffffff"/>
    </g>

    <!-- Texture -->
    <rect x="0" y="0" width="1080" height="1920" rx="64" ry="64" filter="url(#grain)" opacity="0.55"/>
</svg>
